<?xml version="1.0" ?><svg id="Layer_1" style="enable-background:new 0 0 512 512;" version="1.1" viewBox="0 0 512 512" xml:space="preserve" xmlns="http://www.w3.org/2000/svg" xmlns:xlink="http://www.w3.org/1999/xlink"><g id="XMLID_806_" fill="white"><g id="XMLID_825_"><path d="M256,506c-66.8,0-129.6-26-176.8-73.2C32,385.6,6,322.8,6,256c0-66.8,26-129.6,73.2-176.8    C126.4,32,189.2,6,256,6c66.8,0,129.6,26,176.8,73.2C480,126.4,506,189.2,506,256c0,66.8-26,129.6-73.2,176.8    C385.6,480,322.8,506,256,506z M256,15.8C123.6,15.8,15.8,123.6,15.8,256c0,132.4,107.8,240.2,240.2,240.2    c132.4,0,240.2-107.7,240.2-240.2C496.2,123.6,388.4,15.8,256,15.8z M256,369c-19.9,0-36.1-16.2-36.1-36.1    c0-19.9,16.2-36.1,36.1-36.1c19.9,0,36.1,16.2,36.1,36.1C292.1,352.8,275.9,369,256,369z M256,306.6c-14.5,0-26.3,11.8-26.3,26.3    c0,14.5,11.8,26.3,26.3,26.3c14.5,0,26.3-11.8,26.3-26.3C282.3,318.4,270.5,306.6,256,306.6z M173.5,292.1    c-19.9,0-36.1-16.2-36.1-36.1c0-19.9,16.2-36.1,36.1-36.1s36.1,16.2,36.1,36.1C209.6,275.9,193.4,292.1,173.5,292.1z M173.5,229.7    c-14.5,0-26.3,11.8-26.3,26.3c0,14.5,11.8,26.3,26.3,26.3c14.5,0,26.3-11.8,26.3-26.3C199.8,241.5,188,229.7,173.5,229.7z     M341.6,289c-19.9,0-36.1-16.2-36.1-36.1s16.2-36.1,36.1-36.1c19.9,0,36.1,16.2,36.1,36.1S361.5,289,341.6,289z M341.6,226.5    c-14.5,0-26.3,11.8-26.3,26.3c0,14.5,11.8,26.3,26.3,26.3c14.5,0,26.3-11.8,26.3-26.3C367.9,238.3,356.1,226.5,341.6,226.5z     M256,211.2c-19.9,0-36.1-16.2-36.1-36.1c0-19.9,16.2-36.1,36.1-36.1c19.9,0,36.1,16.2,36.1,36.1C292.1,195,275.9,211.2,256,211.2    z M256,148.7c-14.5,0-26.3,11.8-26.3,26.3c0,14.5,11.8,26.3,26.3,26.3c14.5,0,26.3-11.8,26.3-26.3    C282.3,160.5,270.5,148.7,256,148.7z" id="XMLID_826_"/></g><g id="XMLID_807_"><path d="M256,438.7c-100.8,0-182.7-82-182.7-182.7c0-100.8,82-182.7,182.7-182.7c100.8,0,182.7,82,182.7,182.7    C438.7,356.7,356.8,438.7,256,438.7z M256,83.1c-95.3,0-172.9,77.6-172.9,172.9c0,95.3,77.6,172.9,172.9,172.9    c95.3,0,172.9-77.6,172.9-172.9C428.9,160.7,351.3,83.1,256,83.1z M256,369c-19.9,0-36.1-16.2-36.1-36.1    c0-19.9,16.2-36.1,36.1-36.1c19.9,0,36.1,16.2,36.1,36.1C292.1,352.8,275.9,369,256,369z M256,306.6c-14.5,0-26.3,11.8-26.3,26.3    c0,14.5,11.8,26.3,26.3,26.3c14.5,0,26.3-11.8,26.3-26.3C282.3,318.4,270.5,306.6,256,306.6z M173.5,292.1    c-19.9,0-36.1-16.2-36.1-36.1c0-19.9,16.2-36.1,36.1-36.1s36.1,16.2,36.1,36.1C209.6,275.9,193.4,292.1,173.5,292.1z M173.5,229.7    c-14.5,0-26.3,11.8-26.3,26.3c0,14.5,11.8,26.3,26.3,26.3c14.5,0,26.3-11.8,26.3-26.3C199.8,241.5,188,229.7,173.5,229.7z     M341.6,289c-19.9,0-36.1-16.2-36.1-36.1s16.2-36.1,36.1-36.1c19.9,0,36.1,16.2,36.1,36.1S361.5,289,341.6,289z M341.6,226.5    c-14.5,0-26.3,11.8-26.3,26.3s11.8,26.3,26.3,26.3c14.5,0,26.3-11.8,26.3-26.3S356.1,226.5,341.6,226.5z M256,211.2    c-19.9,0-36.1-16.2-36.1-36.1c0-19.9,16.2-36.1,36.1-36.1c19.9,0,36.1,16.2,36.1,36.1C292.1,195,275.9,211.2,256,211.2z     M256,148.7c-14.5,0-26.3,11.8-26.3,26.3c0,14.5,11.8,26.3,26.3,26.3c14.5,0,26.3-11.8,26.3-26.3    C282.3,160.5,270.5,148.7,256,148.7z" id="XMLID_808_"/></g></g></svg>