<?xml version="1.0" encoding="UTF-8" standalone="no"?>
<svg
   xmlns:dc="http://purl.org/dc/elements/1.1/"
   xmlns:cc="http://creativecommons.org/ns#"
   xmlns:rdf="http://www.w3.org/1999/02/22-rdf-syntax-ns#"
   xmlns:svg="http://www.w3.org/2000/svg"
   xmlns="http://www.w3.org/2000/svg"
   viewBox="0 0 1056 768"
   height="768"
   width="1056"
   xml:space="preserve"
   id="svg2"
   version="1.1"><metadata
     id="metadata8"><rdf:RDF><cc:Work
         rdf:about=""><dc:format>image/svg+xml</dc:format><dc:type
           rdf:resource="http://purl.org/dc/dcmitype/StillImage" /></cc:Work></rdf:RDF></metadata><defs
     id="defs6"><clipPath
       id="clipPath22"
       clipPathUnits="userSpaceOnUse"><path
         id="path20"
         d="M 0,576 H 792 V 0 H 0 Z" /></clipPath></defs><g
     transform="matrix(1.3333333,0,0,-1.3333333,0,768)"
     id="g10"><text
       id="text14"
       style="font-variant:normal;font-weight:normal;font-stretch:normal;font-size:21px;font-family:'Lithos Pro Regular';-inkscape-font-specification:LithosPro-Regular;writing-mode:lr-tb;fill:white;fill-opacity:1;fill-rule:nonzero;stroke:none"
       transform="matrix(1,0,0,-1,216.9653,448.5146)"><tspan
         id="tspan12"
         y="0"
         x="0 12.054 31.268999 44.918999 59.451 72.051003 83.244003 91.433998 110.649 122.703 139.50301">ENTR LINEAS</tspan></text>
<g
       id="g16"><g
         clip-path="url(#clipPath22)"
         id="g18"><g
           transform="translate(227.0454,450.1108)"
           id="g24"><path
             id="path26"
             style="fill:none;stroke:white;stroke-width:0.25;stroke-linecap:butt;stroke-linejoin:miter;stroke-miterlimit:10;stroke-dasharray:none;stroke-opacity:1"
             d="m 0,0 c -1.722,-0.126 -4.536,-0.063 -5.04,-0.063 v 5.124 c 0.42,0 3.696,-0.084 4.158,-0.084 L -0.945,6.636 C -1.974,6.51 -4.662,6.405 -5.04,6.405 v 5.334 c 0.336,0 4.116,0.105 4.788,0.105 l -0.084,1.659 C -1.008,13.419 -6.489,13.104 -6.993,13.104 -6.972,12.705 -6.93,7.644 -6.93,7.308 V 4.494 c 0,-0.483 0,-4.977 -0.063,-6.09 0.42,0 6.741,-0.21 7.077,-0.21 z" /></g><g
           transform="translate(233.4502,448.3677)"
           id="g28"><path
             id="path30"
             style="fill:none;stroke:white;stroke-width:0.25;stroke-linecap:butt;stroke-linejoin:miter;stroke-miterlimit:10;stroke-dasharray:none;stroke-opacity:1"
             d="M 0,0 C -0.021,0.693 0.147,10.962 0.147,11.697 H 0.189 C 0.567,11.172 11.193,0.273 11.76,-0.294 h 0.042 c 0.084,5.292 0.483,13.881 0.567,15.141 l -1.953,0.105 C 10.395,14.259 10.269,4.368 10.269,3.78 9.597,4.452 -0.567,15.015 -1.155,15.687 H -1.197 C -1.302,13.524 -1.869,1.722 -1.974,0.147 Z" /></g><g
           transform="translate(256.2559,448.5146)"
           id="g32"><path
             id="path34"
             style="fill:none;stroke:white;stroke-width:0.25;stroke-linecap:butt;stroke-linejoin:miter;stroke-miterlimit:10;stroke-dasharray:none;stroke-opacity:1"
             d="m 0,0 c -0.042,0.42 -0.252,5.418 -0.252,9.681 v 3.465 c 1.764,0 5.649,-0.105 5.943,-0.189 v 1.785 C 4.767,14.574 0.189,14.49 -0.21,14.49 h -1.827 c -0.231,0 -5.208,0.084 -6.048,0.252 v -1.785 c 0.546,0.084 3.528,0.189 5.943,0.189 V 10.017 C -2.142,6.678 -2.163,0.546 -2.268,0 Z" /></g><g
           transform="translate(266.9238,461.8076)"
           id="g36"><path
             id="path38"
             style="fill:none;stroke:white;stroke-width:0.25;stroke-linecap:butt;stroke-linejoin:miter;stroke-miterlimit:10;stroke-dasharray:none;stroke-opacity:1"
             d="m 0,0 c 3.969,-0.042 4.662,-1.449 4.662,-2.394 0,-2.058 -2.1,-3.339 -3.15,-3.906 0.63,-0.882 5.355,-7.077 5.586,-7.371 l 1.596,1.281 c -0.588,0.63 -4.368,5.313 -4.893,6.027 1.722,1.092 2.919,2.478 2.919,4.263 0,1.785 -1.575,2.961 -4.347,3.297 -1.617,0.189 -3.381,0.21 -4.368,0.21 0.063,-0.399 0.105,-4.746 0.105,-5.376 v -1.722 c 0,-0.441 0.042,-7.098 -0.042,-7.602 H 0.105 C 0.063,-12.978 0,-7.665 0,-6.867 Z" /></g><g
           transform="translate(292.0811,463.2148)"
           id="g40"><path
             id="path42"
             style="fill:none;stroke:white;stroke-width:0.25;stroke-linecap:butt;stroke-linejoin:miter;stroke-miterlimit:10;stroke-dasharray:none;stroke-opacity:1"
             d="m 0,0 c 0.042,-0.399 0.084,-5.46 0.084,-5.796 v -2.793 c 0,-0.504 0,-4.998 -0.168,-6.111 0.525,0 6.762,-0.21 7.056,-0.21 v 1.806 c -2.016,-0.084 -4.494,-0.084 -4.998,-0.084 v 5.943 c 0,2.646 0.084,6.783 0.168,7.245 z" /></g><g
           transform="translate(305.248,457.1245)"
           id="g44"><path
             id="path46"
             style="fill:none;stroke:white;stroke-width:0.25;stroke-linecap:butt;stroke-linejoin:miter;stroke-miterlimit:10;stroke-dasharray:none;stroke-opacity:1"
             d="m 0,0 c 0,2.52 0.063,5.712 0.105,6.09 h -2.1 C -1.953,5.586 -1.89,0.399 -1.89,0.042 v -2.268 c 0,-0.546 -0.021,-5.46 -0.063,-6.384 H 0.084 C 0.063,-8.127 0,-4.368 0,-2.268 Z" /></g><g
           transform="translate(312.8291,448.3677)"
           id="g48"><path
             id="path50"
             style="fill:none;stroke:white;stroke-width:0.25;stroke-linecap:butt;stroke-linejoin:miter;stroke-miterlimit:10;stroke-dasharray:none;stroke-opacity:1"
             d="M 0,0 C -0.021,0.693 0.147,10.962 0.147,11.697 H 0.189 C 0.567,11.172 11.193,0.273 11.76,-0.294 h 0.042 c 0.084,5.292 0.483,13.881 0.567,15.141 l -1.953,0.105 C 10.395,14.259 10.269,4.368 10.269,3.78 9.597,4.452 -0.567,15.015 -1.155,15.687 H -1.197 C -1.302,13.524 -1.869,1.722 -1.974,0.147 Z" /></g><g
           transform="translate(337.6929,450.1108)"
           id="g52"><path
             id="path54"
             style="fill:none;stroke:white;stroke-width:0.25;stroke-linecap:butt;stroke-linejoin:miter;stroke-miterlimit:10;stroke-dasharray:none;stroke-opacity:1"
             d="m 0,0 c -1.722,-0.126 -4.536,-0.063 -5.04,-0.063 v 5.124 c 0.42,0 3.696,-0.084 4.158,-0.084 L -0.945,6.636 C -1.974,6.51 -4.662,6.405 -5.04,6.405 v 5.334 c 0.336,0 4.116,0.105 4.788,0.105 l -0.084,1.659 C -1.008,13.419 -6.489,13.104 -6.993,13.104 -6.972,12.705 -6.93,7.644 -6.93,7.308 V 4.494 c 0,-0.483 0,-4.977 -0.063,-6.09 0.42,0 6.741,-0.21 7.077,-0.21 z" /></g><g
           transform="translate(341.8086,448.1157)"
           id="g56"><path
             id="path58"
             style="fill:none;stroke:white;stroke-width:0.25;stroke-linecap:butt;stroke-linejoin:miter;stroke-miterlimit:10;stroke-dasharray:none;stroke-opacity:1"
             d="M 0,0 C 0.357,0.714 2.079,4.767 2.331,5.166 L 9.618,5.46 C 9.849,5.124 12.075,0.819 12.495,0.021 L 14.28,1.197 C 12.852,3.381 7.875,12.852 6.027,15.834 H 5.985 C 5.481,15.036 -0.567,3.108 -1.722,1.092 Z m 3.045,6.552 c 0.189,0.336 2.604,5.481 2.919,5.943 0.21,-0.336 2.793,-5.229 3.024,-5.691 z" /></g><g
           transform="translate(359.5322,448.1367)"
           id="g60"><path
             id="path62"
             style="fill:none;stroke:white;stroke-width:0.25;stroke-linecap:butt;stroke-linejoin:miter;stroke-miterlimit:10;stroke-dasharray:none;stroke-opacity:1"
             d="m 0,0 c 4.032,0.945 6.216,3.192 6.216,5.25 0,1.701 -1.281,2.373 -2.877,3.318 -0.882,0.525 -2.373,1.197 -2.373,2.289 0,1.764 3.108,2.772 4.389,2.982 L 4.914,15.456 C 2.037,14.805 -1.071,12.726 -1.071,10.5 -1.071,9.009 0.168,8.127 1.953,7.161 3.465,6.342 4.137,5.796 4.137,4.746 4.137,3.045 1.512,1.995 -0.546,1.575 Z" /></g></g></g><g
       transform="translate(217.3671,465.7653)"
       id="g64"><path
         id="path66"
         style="fill:#231f20;fill-opacity:1;fill-rule:nonzero;stroke:none"
         d="M 0,0 H 150.49 Z" /></g><g
       transform="translate(217.3672,465.7651)"
       id="g68">
        <!-- TOP LINE -->
        <path
         id="path70"
         style="fill:none;stroke:white;stroke-width:1.5;stroke-linecap:butt;stroke-linejoin:miter;stroke-miterlimit:10;stroke-dasharray:none;stroke-opacity:1"
         d="M 0,0 H 150.49" />
         <!-- -->
       </g><g
       transform="translate(277.1118,461.3337)"
       id="g72"><path
         id="path74"
         style="fill:#231f20;fill-opacity:1;fill-rule:nonzero;stroke:none"
         d="M 0,0 H 13 Z" /></g><g
       transform="translate(277.1118,461.3335)"
       id="g76"><path
         id="path78"
         style="fill:none;stroke:#8cc63f;stroke-width:2;stroke-linecap:butt;stroke-linejoin:miter;stroke-miterlimit:10;stroke-dasharray:none;stroke-opacity:1"
         d="M 0,0 H 13" /></g><g
       transform="translate(277.1118,455.3334)"
       id="g80"><path
         id="path82"
         style="fill:#231f20;fill-opacity:1;fill-rule:nonzero;stroke:none"
         d="M 0,0 H 13 Z" /></g><g
       transform="translate(277.1118,455.3335)"
       id="g84"><path
         id="path86"
         style="fill:none;stroke:#8cc63f;stroke-width:2;stroke-linecap:butt;stroke-linejoin:miter;stroke-miterlimit:10;stroke-dasharray:none;stroke-opacity:1"
         d="M 0,0 H 13" /></g><g
       transform="translate(277.1118,449.3331)"
       id="g88"><path
         id="path90"
         style="fill:#231f20;fill-opacity:1;fill-rule:nonzero;stroke:none"
         d="M 0,0 H 13 Z" /></g><g
       transform="translate(277.1118,449.3335)"
       id="g92"><path
         id="path94"
         style="fill:none;stroke:#8cc63f;stroke-width:2;stroke-linecap:butt;stroke-linejoin:miter;stroke-miterlimit:10;stroke-dasharray:none;stroke-opacity:1"
         d="M 0,0 H 13" /></g><g
       transform="translate(217.3671,445.7655)"
       id="g96"><path
         id="path98"
         style="fill:#231f20;fill-opacity:1;fill-rule:nonzero;stroke:none"
         d="M 0,0 H 150.49 Z" /></g><g
       transform="translate(217.3672,445.7651)"
       id="g100">
       <!-- BOTTOM LINE -->
       <path
         id="path102"
         style="fill:none;stroke:white;stroke-width:1.5;stroke-linecap:butt;stroke-linejoin:miter;stroke-miterlimit:10;stroke-dasharray:none;stroke-opacity:1"
         d="M 0,0 H 150.49" />
         <!-- -->
       </g></g></svg>